<svg xmlns="http://www.w3.org/2000/svg" width="79.144" height="60.177" viewBox="0 0 79.144 60.177">
  <g id="Group_9413" data-name="Group 9413" transform="translate(-469.868 -466.448)">
    <path id="Path_5389" data-name="Path 5389" d="M515.205,503.911c2.66,1.932,4,.955,2.99-2.171l-.486-1.49-3.169-9.753,6.953-5.052,2.61-1.9c2.66-1.933,2.147-3.513-1.141-3.513H511.149l-.009,0-1.839-5.66a.122.122,0,0,0-.006-.023l-.765-2.359-.558-1.714h0l-.481-1.487c-1.016-3.125-2.68-3.125-3.694,0l-.483,1.487-.779,2.4-.545,1.673,0,.009-1.844,5.675H488.32c-3.286,0-3.8,1.581-1.141,3.513l2.471,1.8,7.09,5.151v0l-1.839,5.66-.006.023-1.805,5.559c-1.017,3.126.327,4.1,2.987,2.171l3.328-2.419,6.233-4.528.006,0,8.293,6.024Z" transform="translate(3.933 0)" fill="#bf0613"/>
    <path id="Path_5390" data-name="Path 5390" d="M489.024,505.475c1.714,1.244,2.58.616,1.927-1.4l-.313-.959-2.042-6.285,4.481-3.255,1.681-1.222c1.715-1.246,1.383-2.263-.734-2.263H486.41l0,0-1.186-3.647,0-.009-.495-1.526-.359-1.1h0l-.309-.959c-.655-2.013-1.726-2.013-2.381,0l-.31.959-.5,1.546-.349,1.077,0,.006-1.188,3.657H471.7c-2.118,0-2.449,1.018-.735,2.263l1.594,1.157,4.567,3.319v0l-1.186,3.647,0,.015-1.163,3.581c-.655,2.016.212,2.644,1.924,1.4l2.146-1.558L482.861,501h0l5.343,3.882Z" transform="translate(0 3.751)" fill="#bf0613"/>
    <path id="Path_5391" data-name="Path 5391" d="M502.847,505.884h-5.954l0,0-.928-2.851v-.009l-.387-1.192-.282-.864h0l-.243-.75c-.512-1.574-1.35-1.574-1.862,0l-.243.75-.393,1.209-.274.843v.005l-.929,2.859H485.39c-1.657,0-1.917.8-.576,1.769l1.246.906,3.573,2.594v0l-.928,2.853,0,.01-.91,2.8c-.512,1.575.165,2.068,1.506,1.094l1.676-1.218,3.142-2.284h0l4.179,3.036.638.465c1.341.974,2.018.481,1.506-1.094l-.244-.751-1.6-4.914,3.5-2.546,1.316-.956C504.762,506.68,504.5,505.884,502.847,505.884Z" transform="translate(3.549 8.21)" fill="#bf0613"/>
    <path id="Path_5392" data-name="Path 5392" d="M521.875,505.884h-5.957l-.929-2.859v-.005l-.275-.843-.392-1.209-.243-.75c-.512-1.574-1.35-1.574-1.863,0l-.242.75h0l-.28.864-.387,1.192,0,.009-.926,2.851,0,0h-5.953c-1.656,0-1.915.8-.575,1.769l1.316.956,3.5,2.546-1.6,4.914-.245.751c-.511,1.575.167,2.068,1.506,1.094l.64-.465,4.179-3.036h0l3.141,2.284,1.678,1.218c1.339.974,2.017.481,1.5-1.094l-.909-2.8,0-.01-.926-2.853v0l3.573-2.594,1.246-.906C523.791,506.68,523.532,505.884,521.875,505.884Z" transform="translate(8.344 8.21)" fill="#bf0613"/>
    <path id="Path_5393" data-name="Path 5393" d="M536.482,490.091h-7.617l-1.188-3.657,0-.006-.349-1.077-.5-1.546-.311-.959c-.655-2.013-1.726-2.013-2.381,0l-.309.959h0l-.359,1.1-.495,1.526,0,.009-1.186,3.647-.005,0h-7.614c-2.117,0-2.449,1.018-.734,2.263l1.681,1.222,4.479,3.255-2.041,6.285-.313.959c-.653,2.016.213,2.644,1.927,1.4l.816-.594L525.318,501h0l4.016,2.919,2.146,1.558c1.714,1.244,2.579.616,1.924-1.4l-1.163-3.581,0-.015-1.186-3.647v0l4.567-3.319,1.594-1.157C538.932,491.109,538.6,490.091,536.482,490.091Z" transform="translate(10.697 3.751)" fill="#bf0613"/>
  </g>
</svg>
