<svg id="Group_9420" data-name="Group 9420" xmlns="http://www.w3.org/2000/svg" width="26.275" height="16.15" viewBox="0 0 26.275 16.15">
  <path id="Path_5373" data-name="Path 5373" d="M49.151,56.535v-1.1a3.9,3.9,0,0,0-3.9-3.9H35.717V57.6H49A3.883,3.883,0,0,0,49.151,56.535Zm-20.834.175a.946.946,0,0,0,.946.946h4.72a.946.946,0,0,0,.946-.946V52.485a.946.946,0,1,0-1.892,0v3.278H29.264A.946.946,0,0,0,28.318,56.71Zm21.928,1.661H27.513V49.429a1.513,1.513,0,1,0-3.026,0v14.12a.517.517,0,0,0,.517.517H27a.517.517,0,0,0,.516-.517V61.4H47.735v2.152a.517.517,0,0,0,.517.517h1.994a.517.517,0,0,0,.516-.517V58.887A.516.516,0,0,0,50.245,58.371ZM30.351,54.886A2.248,2.248,0,1,0,28.1,52.638,2.248,2.248,0,0,0,30.351,54.886Z" transform="translate(-24.487 -47.916)" fill="#bf0613"/>
</svg>
