<svg xmlns="http://www.w3.org/2000/svg" width="26.274" height="23.813" viewBox="0 0 26.274 23.813">
  <path id="Path_5399" data-name="Path 5399" d="M244.675,141.03l-1.171,0,.025-18.364h.785l-1.974-4.631-20.782-.027-1.986,4.625h.8L220.346,141l-1.153,0h0a.4.4,0,0,0,0,.791l25.483.034h0a.4.4,0,0,0,0-.791Zm-7.25-16.628,2.946,0,0,2.946-2.946,0Zm0,4.748,2.946,0,0,2.946-2.946,0Zm-.007,5.148,2.946,0,0,2.946-2.946,0Zm-6.95-9.9,2.946,0,0,2.946-2.946,0Zm0,4.748,2.946,0,0,2.946-2.946,0Zm1.363,3.586,3.183,1.963h-.5a.4.4,0,0,1,.011.058l-.008,6.269h-.706l.008-6.269a.4.4,0,0,1,.011-.058l-3.8,0a.39.39,0,0,1,.011.057l-.008,6.27h-.706l.008-6.27a.39.39,0,0,1,.011-.057h-.494Zm1.568,8.288-2.946,0,.007-5.139,2.946,0Zm-9.888-16.631,2.946,0,0,2.946-2.946,0Zm0,4.748,2.946,0,0,2.946-2.946,0Zm-.007,5.148,2.946,0,0,2.946-2.946,0Z" transform="translate(-218.796 -118.008)" fill="#bf0613"/>
</svg>
