<svg xmlns="http://www.w3.org/2000/svg" width="42.166" height="37.119" viewBox="0 0 42.166 37.119">
  <path id="Path_5395" data-name="Path 5395" d="M317.417,259.941a1,1,0,0,0,1-1v-5a1,1,0,0,0-1-1h-4a1,1,0,0,0-1,1v5a1,1,0,0,0,1,1Zm-7,9a1,1,0,0,1-1-1v-17a1,1,0,0,1,1-1h26a1,1,0,0,1,1,1v9.424l4-4V243.941a4,4,0,0,0-4-4h-28a4,4,0,0,0-4,4v25a4,4,0,0,0,4,4h16.317a2.977,2.977,0,0,1,.834-1.729c.362-.365,1.372-1.37,1.372-1.37l.9-.9Zm7-25.5h4a1.5,1.5,0,0,1,0,3h-4a1.5,1.5,0,0,1,0-3Zm-6-.5a2,2,0,1,1-2,2A2,2,0,0,1,311.417,242.941Zm.25,21.5a1.25,1.25,0,0,0,1.25,1.25h18a1.25,1.25,0,0,0,0-2.5h-18A1.25,1.25,0,0,0,311.667,264.441Zm24.5-5a1.249,1.249,0,0,0-1.25-1.25h-12a1.25,1.25,0,0,0,0,2.5h12A1.25,1.25,0,0,0,336.167,259.441Zm11.269.884-2.868-2.868a.5.5,0,0,0-.707,0l-1.507,1.507a.5.5,0,0,0,0,.707l2.868,2.869a.5.5,0,0,0,.707,0l1.507-1.507A.5.5,0,0,0,347.436,260.325Zm-6.82,1.084a.5.5,0,0,0-.707,0l-8.036,8.035a.5.5,0,0,0,0,.708l2.869,2.868a.5.5,0,0,0,.707,0l8.035-8.035a.5.5,0,0,0,0-.707Zm-5.7-8.218h-12a1.25,1.25,0,0,0,0,2.5h12a1.25,1.25,0,0,0,0-2.5Zm-4.856,18.771a.5.5,0,0,0-.7,0c-.326.324-.794.79-1.016,1.014a.489.489,0,0,0-.14.31l-.249,3.237a.5.5,0,0,0,.556.535l3.11-.358a.5.5,0,0,0,.3-.143l1.016-1.016a.5.5,0,0,0,0-.707Z" transform="translate(-305.417 -239.941)" fill="#bf0613"/>
</svg>
