<svg xmlns="http://www.w3.org/2000/svg" width="39.393" height="35.435" viewBox="0 0 39.393 35.435">
  <path id="Path_5396" data-name="Path 5396" d="M278.132,138.618l-1.8-5.4a1.192,1.192,0,0,1,.079-.928,14.078,14.078,0,0,0-8-19.777,16.789,16.789,0,0,1,.99,9.539,16.507,16.507,0,0,1-13.253,13.123,17.262,17.262,0,0,1-2.606.253,14.068,14.068,0,0,0,16.716,2.994,1.194,1.194,0,0,1,.922-.076l5.42,1.806A1.213,1.213,0,0,0,278.132,138.618Zm-11.191-17.026a14.091,14.091,0,1,0-26.353,3.7,1.2,1.2,0,0,1,.079.928l-1.8,5.4a1.213,1.213,0,0,0,1.535,1.535l5.42-1.806a1.194,1.194,0,0,1,.922.076,14.079,14.079,0,0,0,20.2-9.831Zm-17.32-4.457a1.751,1.751,0,0,1-1.75-1.75,5.139,5.139,0,0,1,5.1-5.129,4.959,4.959,0,0,1,3.638,1.519,5.1,5.1,0,0,1-1.886,8.441l.026.7a1.75,1.75,0,1,1-3.5,0v-.633a3.541,3.541,0,0,1,2.3-3.359,1.629,1.629,0,1,0-2.176-1.535A1.751,1.751,0,0,1,249.621,117.135ZM253,128.006a1.778,1.778,0,1,1,1.778-1.778A1.778,1.778,0,0,1,253,128.006Z" transform="translate(-238.803 -104.783)" fill="#bf0613"/>
</svg>
