<svg xmlns="http://www.w3.org/2000/svg" width="84.741" height="59.494" viewBox="0 0 84.741 59.494">
  <path id="Path_5388" data-name="Path 5388" d="M381.317,418.24l-1.275-1.992-12.98-20.282-1.088-1.7-1.577,1.079-11.9,8.135c-2.369-.923-8.409-3.211-10.792-3.5a8.922,8.922,0,0,0-1.065-.055,50.179,50.179,0,0,0-9.617,1.54,35.1,35.1,0,0,0-3.91-1.465A75.473,75.473,0,0,1,314,394.337l-1.406-.792-16.013,21.462,1.44,1.531c.664.706,3.318,4.2,6.392,8.241l2.118,2.784c-1.467,2.58-2.661,6.016-.579,8.95a6.03,6.03,0,0,0,3.971,2.706,5.888,5.888,0,0,0,2.14,3.732,5.352,5.352,0,0,0,3.513,1.459,5.042,5.042,0,0,0,.9-.084c.03.066.058.128.082.184a8.88,8.88,0,0,0,2.771,3.767,4.538,4.538,0,0,0,2.768.97,4.609,4.609,0,0,0,.941-.1,4.573,4.573,0,0,0,3.51,3.49,7.42,7.42,0,0,0,1.563.181,4.425,4.425,0,0,0,3.149-1.2c.476.245.771.38.814.4a8.657,8.657,0,0,0,4.105,1.026,12.467,12.467,0,0,0,3.126-.443,30.759,30.759,0,0,0,4.869-2.248,1.962,1.962,0,0,0,.305-.164A156.294,156.294,0,0,0,359.8,440.8a2.078,2.078,0,0,0,.328-.24,18.207,18.207,0,0,0,3.206-2.751,11.651,11.651,0,0,0,1.931-7.469l14.258-10.75ZM360.31,434.69a7.915,7.915,0,0,1-1.2,1.1l-6.5-6.915a1.847,1.847,0,0,0-2.866.131,2.6,2.6,0,0,0,.115,3.307l5.662,6.025c-1.185.786-2.506,1.628-3.879,2.477l-6.8-7.107a1.84,1.84,0,0,0-2.863.164,2.594,2.594,0,0,0,.141,3.3l5.693,5.949c-1.375.809-2.715,1.573-3.948,2.253l-6.677-7.138a1.845,1.845,0,0,0-2.866.126,2.6,2.6,0,0,0,.109,3.3l5.416,5.79a9.847,9.847,0,0,1-1.438.574,5.866,5.866,0,0,1-4.792-.337c-.009,0-.142-.064-.377-.182.246-3.208-1.8-6.965-3.3-8.061a4.1,4.1,0,0,0-2.257-1.041,8.456,8.456,0,0,0-2.034-5.9,3.611,3.611,0,0,0-2.57-1.258,2.932,2.932,0,0,0-.518.045,9.551,9.551,0,0,0-.342-3.717,4.536,4.536,0,0,0-2.268-2.742,3.883,3.883,0,0,0-1.7-.416,3.527,3.527,0,0,0-2.414.96c-.008-.05-.018-.1-.026-.145a4.528,4.528,0,0,0-1.55-2.948l-.038-.026-.038-.027a3.392,3.392,0,0,0-1.879-.647c-1.417,0-2.426,1.11-3.244,2.211l-1.6-2.109c-2.472-3.25-4.2-5.522-5.331-6.953l11.515-15.433a77.274,77.274,0,0,0,11.68,4.971,2.929,2.929,0,0,0-.465.716,3.238,3.238,0,0,0-.019,2.594,7.48,7.48,0,0,0,3.145,4.208l.183.111a8.067,8.067,0,0,0,4.462,1.47,14.636,14.636,0,0,0,6-1.646,1.533,1.533,0,0,1,.6-.086,5.733,5.733,0,0,1,1.483.265c3.136,1.972,5.354,3.54,5.409,3.579,3.248,2.959,8.829,8.3,13.486,12.808a13.4,13.4,0,0,1,1.619,2.385A6.476,6.476,0,0,1,360.31,434.69Z" transform="translate(-296.576 -393.545)" fill="#bf0613"/>
</svg>
