<svg xmlns="http://www.w3.org/2000/svg" width="38.17" height="35.121" viewBox="0 0 38.17 35.121">
  <path id="Path_5397" data-name="Path 5397" d="M54.3,111.579a.958.958,0,0,0-1.269,0L39.053,123.93a.479.479,0,0,0-.162.359v14.528a.479.479,0,0,0,.479.479H49.2a.479.479,0,0,0,.479-.479v-9.279a1.917,1.917,0,0,1,1.917-1.917h4.151a1.917,1.917,0,0,1,1.917,1.917v9.279a.479.479,0,0,0,.479.479h9.828a.479.479,0,0,0,.479-.479V124.29a.479.479,0,0,0-.162-.359Zm17.835,7.559L56.2,105.129a3.835,3.835,0,0,0-5.062,0L35.2,119.138a1.811,1.811,0,0,0-.085,2.641h0a1.811,1.811,0,0,0,2.477.079L52.4,108.813a1.917,1.917,0,0,1,2.534,0l14.81,13.045a1.811,1.811,0,1,0,2.392-2.72Z" transform="translate(-34.584 -104.176)" fill="#bf0613"/>
</svg>
