<svg xmlns="http://www.w3.org/2000/svg" width="69.499" height="69.499" viewBox="0 0 69.499 69.499">
  <g id="Group_9414" data-name="Group 9414" transform="translate(62.034 2.564)">
    <path id="Path_5394" data-name="Path 5394" d="M-23.579,12.628a4.723,4.723,0,0,0-3.336,1.3,4.11,4.11,0,0,0-1.391,3.118,4.072,4.072,0,0,0,1.391,3.105,4.746,4.746,0,0,0,3.336,1.283,4.7,4.7,0,0,0,3.319-1.283,4.079,4.079,0,0,0,1.381-3.105,4.118,4.118,0,0,0-1.381-3.118,4.675,4.675,0,0,0-3.319-1.3ZM-26.57,25.411a10.165,10.165,0,0,0-3.161.565q-1.715.562-3.619,1.355l-.838,2.158q.562-.215,1.339-.456a5,5,0,0,1,1.476-.239,2.346,2.346,0,0,1,1.845.528,2.457,2.457,0,0,1,.2,1.871,9.834,9.834,0,0,1-.434,1.643q-.311.9-.72,1.906l-2.96,7q-.422,1.1-.676,1.98a14.791,14.791,0,0,0-.391,1.714A4.128,4.128,0,0,0-33.647,49a4.852,4.852,0,0,0,3.85,1.4,9.044,9.044,0,0,0,3.08-.493q1.372-.489,3.693-1.426l.838-2.159a9.029,9.029,0,0,1-1.275.443,5.6,5.6,0,0,1-1.528.252,2.619,2.619,0,0,1-1.886-.5,2.226,2.226,0,0,1-.255-1.893,12.2,12.2,0,0,1,.443-1.63q.353-1.079.712-1.921l2.948-6.979a13.082,13.082,0,0,0,.709-2.111q.288-1.15.363-1.607a4.186,4.186,0,0,0-.821-3.584,4.748,4.748,0,0,0-3.794-1.38Zm-.715,36.463A29.723,29.723,0,0,1-56.973,32.185,29.722,29.722,0,0,1-27.285,2.5,29.722,29.722,0,0,1,2.4,32.185,29.723,29.723,0,0,1-27.285,61.874Zm0-63.438A33.788,33.788,0,0,0-61.034,32.185,33.788,33.788,0,0,0-27.285,65.935,33.788,33.788,0,0,0,6.465,32.185,33.788,33.788,0,0,0-27.285-1.564Z" transform="translate(0 0)" fill="#bf0613" stroke="#bf0613" stroke-width="2"/>
  </g>
</svg>
