<svg xmlns="http://www.w3.org/2000/svg" width="67.22" height="51.706" viewBox="0 0 67.22 51.706">
  <g id="Group_9410" data-name="Group 9410" transform="translate(-181.356 -316.364)">
    <path id="Path_5378" data-name="Path 5378" d="M251.772,337.552a1.584,1.584,0,0,0-2.176,2.3,7.992,7.992,0,0,1,0,11.784,1.584,1.584,0,1,0,2.176,2.3,11.159,11.159,0,0,0,0-16.388Z" transform="translate(-14.404 -4.413)" fill="#bf0613"/>
    <path id="Path_5379" data-name="Path 5379" d="M258.492,331.044a1.847,1.847,0,1,0-2.538,2.686,14.416,14.416,0,0,1,0,21.236,1.847,1.847,0,0,0,2.538,2.685,18.109,18.109,0,0,0,0-26.607Z" transform="translate(-15.739 -3.014)" fill="#bf0613"/>
    <path id="Path_5380" data-name="Path 5380" d="M224.955,317.128a3.691,3.691,0,0,0-4.475-.017s-5.4,4.391-16.169,7.709c-9.1,2.8-16.8,5.317-16.8,5.317a12.694,12.694,0,0,0-4.673,3.056s-1.477,1.659-1.477,8.14,1.471,8.123,1.471,8.123a9.445,9.445,0,0,0,4.788,2.6s1.983.31,5.29,1.125l2.294,12.3a3.307,3.307,0,0,0,3.12,2.591H200.2a2.644,2.644,0,0,0,2.636-2.636v-9.308q.912.315,1.859.661a54.718,54.718,0,0,1,15.847,8.693,3.548,3.548,0,0,0,4.416.055s6.46-5.327,6.46-24.2S224.955,317.128,224.955,317.128Zm-2.285,43.328c-2.007,0-3.731-4.728-4.484-11.49a10.111,10.111,0,0,0,4.979-2.147,6.851,6.851,0,0,0,0-10.971,10.1,10.1,0,0,0-4.979-2.148c.754-6.761,2.477-11.489,4.484-11.489,2.7,0,4.889,8.562,4.889,19.123S225.37,360.456,222.67,360.456Z" fill="#bf0613"/>
  </g>
</svg>
