<svg xmlns="http://www.w3.org/2000/svg" width="34.5" height="29.836" viewBox="0 0 34.5 29.836">
  <path id="Path_5398" data-name="Path 5398" d="M384.75,254.418h-7a.5.5,0,0,0-.5.5v16a.5.5,0,0,0,.5.5h7a.5.5,0,0,0,.5-.5v-16A.5.5,0,0,0,384.75,254.418Zm-3.5,14a1.5,1.5,0,1,1,1.5-1.5A1.5,1.5,0,0,1,381.25,268.418Zm27.632-15H399.75a2,2,0,0,1-2-2v-3.836a4,4,0,0,0-4.132-4,1.978,1.978,0,0,0-1.868,2v4c0,2.836-4,4.836-4,6.836V269.21a2,2,0,0,0,1.062,1.767c.365.193.795.421,1.242.661a15,15,0,0,0,7.089,1.78h7.739a2.868,2.868,0,0,0,2.868-2.868v-.264a2.833,2.833,0,0,0-.335-1.319,2.861,2.861,0,0,0,1.335-2.417v-.764a2.857,2.857,0,0,0-.873-2.056,2.642,2.642,0,0,0,1.153-4.327,2.86,2.86,0,0,0,2.72-2.853v-.264A2.868,2.868,0,0,0,408.882,253.418Zm.868,7.632c0,.044-.008.086-.01.129s.01.07.01.107Z" transform="translate(-377.25 -243.582)" fill="#bf0613"/>
</svg>
