<svg xmlns="http://www.w3.org/2000/svg" width="56.479" height="50.935" viewBox="0 0 56.479 50.935">
  <g id="Group_9412" data-name="Group 9412" transform="translate(-47.81 -181.485)">
    <path id="Path_5387" data-name="Path 5387" d="M100.459,181.583a4.792,4.792,0,0,0-.963-.1H52.6a4.806,4.806,0,0,0-4.792,4.793v41.35a4.806,4.806,0,0,0,4.792,4.792H99.5a4.806,4.806,0,0,0,4.793-4.792v-41.35A4.811,4.811,0,0,0,100.459,181.583Zm-37.067,3.411a2.337,2.337,0,1,1-2.337,2.337A2.337,2.337,0,0,1,63.392,184.994Zm-7.6,0a2.337,2.337,0,1,1-2.337,2.337A2.337,2.337,0,0,1,55.793,184.994Zm43.424,42.354H52.882V193.177H99.217Z" transform="translate(0 0)" fill="#bf0613"/>
    <rect id="Rectangle_7906" data-name="Rectangle 7906" width="19.477" height="2.735" transform="translate(74.624 214.6)" fill="#bf0613"/>
    <rect id="Rectangle_7907" data-name="Rectangle 7907" width="19.477" height="2.735" transform="translate(74.624 220.552)" fill="#bf0613"/>
    <rect id="Rectangle_7908" data-name="Rectangle 7908" width="9.724" height="9.724" transform="translate(57.997 214.081)" fill="#bf0613"/>
    <rect id="Rectangle_7909" data-name="Rectangle 7909" width="36.104" height="11.692" transform="translate(57.997 197.651)" fill="#bf0613"/>
  </g>
</svg>
